<?xml version="1.0" encoding="UTF-8" standalone="no"?>
<svg
   xmlns:dc="http://purl.org/dc/elements/1.1/"
   xmlns:cc="http://creativecommons.org/ns#"
   xmlns:rdf="http://www.w3.org/1999/02/22-rdf-syntax-ns#"
   xmlns:svg="http://www.w3.org/2000/svg"
   xmlns="http://www.w3.org/2000/svg"
   xmlns:sodipodi="http://sodipodi.sourceforge.net/DTD/sodipodi-0.dtd"
   xmlns:inkscape="http://www.inkscape.org/namespaces/inkscape"
   width="100%"
   height="100%"
   viewBox="0 0 850 200"
   version="1.1"
   xml:space="preserve"
   style="fill-rule:evenodd;clip-rule:evenodd;stroke-linejoin:round;stroke-miterlimit:1.41421;"
   id="svg2"
   inkscape:version="0.91 r13725"
   sodipodi:docname="logo_black.svg"
   inkscape:export-filename="C:\xampp\htdocs\trucking-vs\dev\assets\images\logo_prv.png"
   inkscape:export-xdpi="58.235294"
   inkscape:export-ydpi="58.235294"><metadata
     id="metadata55"><rdf:RDF><cc:Work
         rdf:about=""><dc:format>image/svg+xml</dc:format><dc:type
           rdf:resource="http://purl.org/dc/dcmitype/StillImage" /></cc:Work></rdf:RDF></metadata><defs
     id="defs53" /><sodipodi:namedview
     pagecolor="#ffffff"
     bordercolor="#666666"
     borderopacity="1"
     objecttolerance="10"
     gridtolerance="10"
     guidetolerance="10"
     inkscape:pageopacity="0"
     inkscape:pageshadow="2"
     inkscape:window-width="1920"
     inkscape:window-height="1017"
     id="namedview51"
     showgrid="false"
     inkscape:zoom="0.8235294"
     inkscape:cx="489.62854"
     inkscape:cy="85.774376"
     inkscape:window-x="-8"
     inkscape:window-y="-8"
     inkscape:window-maximized="1"
     inkscape:current-layer="g45" /><g
     id="Logo"
     transform="matrix(0.11079,-1.72094e-34,-3.44187e-34,0.11079,0,0)"
     inkscape:export-xdpi="81.051231"
     inkscape:export-ydpi="81.051231"
     inkscape:export-filename="C:\xampp\htdocs\trucking-vs\facebook_profilbild.png"><circle
       id="Hintergrund1"
       cx="902.038"
       cy="902.038"
       r="902.038"
       style="fill:rgb(255,128,0);" /><g
       id="Lkw"><g
         id="Lkw1"><path
           d="M832.614,227.14C832.614,227.14 1179.76,216.326 1263.1,236.702C1282.4,241.419 1284.53,258.184 1293.74,275.141C1307.93,301.249 1323.98,332.833 1329.01,360.689C1345.29,450.918 1355.28,655.631 1361.18,778.015C1366.16,881.213 1362.75,1090.05 1362.75,1090.05C1362.75,1090.05 1361.74,1093.57 1361.18,1095.12C1359.12,1100.89 1346.58,1096.05 1341.21,1098.9C1335.85,1101.76 1329.01,1106.61 1329.01,1112.25C1329.01,1117.88 1333.72,1128.83 1341.21,1132.73C1354.34,1139.57 1393.53,1136.09 1407.79,1153.28C1409.75,1155.65 1412.65,1163.18 1412.65,1163.18L1414.17,1274.04L1407.99,1451.82C1407.99,1451.82 1407.82,1455.75 1407.79,1457.72C1407.39,1482.56 1329.01,1480.69 1329.01,1480.69C1329.01,1480.69 1328.64,1486.08 1329.01,1492C1329.38,1497.92 1307.82,1502.78 1307.82,1502.78L832.614,1502.78L832.614,227.141L832.614,227.14Z"
           id="path8" /><path
           d="M908.839,227.14C908.839,227.14 599.845,216.326 525.664,236.702C508.491,241.419 506.596,258.184 498.393,275.141C485.762,301.249 471.478,332.833 467.004,360.689C452.514,450.918 443.615,655.631 438.364,778.015C433.936,881.213 436.973,1090.05 436.973,1090.05C436.973,1090.05 437.872,1093.57 438.364,1095.12C440.203,1100.89 451.366,1096.05 456.139,1098.9C460.913,1101.76 467.004,1106.61 467.004,1112.25C467.004,1117.88 462.81,1128.83 456.139,1132.73C444.452,1139.57 409.571,1136.09 396.881,1153.28C395.133,1155.65 392.557,1163.18 392.557,1163.18L391.197,1274.04L396.698,1451.82C396.698,1451.82 396.853,1455.75 396.881,1457.72C397.236,1482.56 467.004,1480.69 467.004,1480.69C467.004,1480.69 467.333,1486.08 467.004,1492C466.676,1497.92 485.863,1502.78 485.863,1502.78L908.839,1502.78L908.839,227.141L908.839,227.14Z"
           id="path10" /></g><g
         id="Reifen"><path
           d="M552.8,1461.88L400.736,1461.88L400.736,1550.33C400.736,1566.6 413.947,1579.81 430.218,1579.81L523.318,1579.81C539.59,1579.81 552.8,1566.6 552.8,1550.33L552.8,1461.88Z"
           id="path13" /><path
           d="M1407.1,1461.88L1255.04,1461.88L1255.04,1550.33C1255.04,1566.6 1268.25,1579.81 1284.52,1579.81L1377.62,1579.81C1393.89,1579.81 1407.1,1566.6 1407.1,1550.33L1407.1,1461.88L1407.1,1461.88Z"
           id="path15" /></g><g
         id="Kühlergrill"><path
           d="M1267.37,915.064C1267.64,913.29 1268.23,910.671 1267.37,909.214C1266.51,907.756 1264.2,906.358 1262.19,906.318C1201.41,905.122 962.632,902.038 902.721,902.038C901.18,902.038 902.721,904.891 902.721,906.318C902.721,941.568 901.985,1065.79 902.721,1113.54C902.776,1117.08 1176.52,1112.16 1182.77,1113.54C1193.89,1115.99 1200.35,1093.54 1205.38,1081.74C1219.48,1048.66 1262.98,943.736 1267.37,915.064L1267.37,915.064Z"
           style="fill:rgb(255,128,0);"
           id="path18" /><path
           d="M542.068,915.064C541.797,913.29 541.204,910.671 542.068,909.214C542.932,907.756 545.234,906.358 547.251,906.318C608.026,905.122 846.806,902.038 906.717,902.038C908.258,902.038 906.717,904.891 906.717,906.318C906.717,941.568 907.453,1065.79 906.717,1113.54C906.662,1117.08 632.915,1112.16 626.669,1113.54C615.545,1115.99 609.092,1093.54 604.06,1081.74C589.96,1048.66 546.455,943.736 542.068,915.064L542.068,915.064Z"
           style="fill:rgb(255,128,0);"
           id="path20" /><path
           d="M640.464,1185.84L716.574,1423.4L1100.28,1423.4L1174.34,1185.84L640.464,1185.84L640.464,1185.84Z"
           style="fill:rgb(255,128,0);"
           id="path22" /></g><path
         d="M656.893,1285.95C823.607,1290.95 990.334,1291.07 1157.07,1285.95C1160.3,1303.29 1135.72,1320.26 1129.69,1337.36L915.237,1337.36L677.422,1337.36L656.893,1285.95Z"
         id="path24" /><g
         id="Windschutzscheibe"><path
           d="M1311.03,417.195C1279.87,417.468 700.282,417.195 700.282,417.195L700.282,806.874L1297.57,806.874C1297.11,809.188 1308.08,781.344 1311.03,760.819C1314.16,739.011 1320.35,701.709 1322.77,677.131C1326.37,640.464 1328.37,471.46 1322.77,440.029C1320.44,426.967 1326.78,417.057 1311.03,417.195L1311.03,417.195Z"
           style="fill:rgb(255,128,0);"
           id="path27" /><path
           d="M496.924,417.195C518.208,417.468 914.045,417.195 914.045,417.195L914.045,806.874L506.115,806.874C506.428,809.188 498.937,781.344 496.924,760.819C494.785,739.011 490.556,701.709 488.907,677.131C486.447,640.464 485.082,471.46 488.907,440.029C490.497,426.967 486.168,417.057 496.924,417.195L496.924,417.195Z"
           style="fill:rgb(255,128,0);"
           id="path29" /></g><g
         id="Spiegel"><path
           d="M1345.69,489.585L1352.89,486.673L1352.89,475.552C1352.89,475.552 1378.29,474.678 1390.54,475.552C1403.01,476.442 1428.9,479.903 1428.9,479.903L1428.9,485.172C1428.9,485.172 1422.97,487.136 1422.66,489.585C1417.19,531.978 1437.07,749.766 1437.07,749.766L1445.12,753.54L1445.12,756.825L1366.34,770.111L1366.34,776.176L1361.51,773.57L1361.51,835.121L1396.73,826.283C1396.82,813.096 1396.87,797.966 1396.73,788.252L1493.33,759.416C1493.33,759.416 1494.67,758.495 1495.19,758.054C1497.33,756.245 1495.19,748.487 1495.19,748.487C1495.19,748.487 1509.26,746.147 1514.38,745.018C1519.21,743.954 1524.45,736.533 1524.45,736.533C1523.81,697.074 1523.47,658.064 1521.12,618.89C1519.23,587.307 1511.26,507.973 1508.78,502.445C1507.65,501.323 1504.78,496.733 1502.01,495.712C1497.47,494.032 1481.45,491.395 1481.45,491.395L1481.45,485.172C1481.45,485.172 1448.68,471.103 1424.84,464.493C1409.64,460.279 1375.75,455.708 1375.75,455.708L1375.75,441.081L1341.8,431.657L1345.69,489.585Z"
           id="path32" /><path
           d="M458.384,489.585L451.181,486.673L451.181,475.552C451.181,475.552 425.784,474.678 413.537,475.552C401.065,476.442 375.173,479.903 375.173,479.903L375.173,485.172C375.173,485.172 381.101,487.136 381.417,489.585C386.881,531.978 367.009,749.766 367.009,749.766L358.959,753.54L358.959,756.825L437.736,770.111L437.736,776.176L442.561,773.57L442.561,835.121L407.34,826.283C407.251,813.096 407.21,797.966 407.34,788.252L310.743,759.416C310.743,759.416 309.4,758.495 308.88,758.054C306.748,756.245 308.88,748.487 308.88,748.487C308.88,748.487 294.814,746.147 289.695,745.018C284.868,743.954 279.619,736.533 279.619,736.533C280.265,697.074 280.604,658.064 282.95,618.89C283.327,612.592 283.946,604.396 284.715,595.264C287.803,558.603 293.311,506.871 295.294,502.445C296.422,501.323 299.297,496.733 302.06,495.712C306.603,494.032 322.62,491.395 322.62,491.395L322.62,485.172C322.62,485.172 355.392,471.103 379.239,464.493C394.438,460.279 428.322,455.708 428.322,455.708L428.322,441.081L462.275,431.657L458.384,489.585L458.384,489.585Z"
           id="path34" /></g><g
         id="Scheinwerfer"><path
           d="M1192.03,1285.95C1192.03,1285.95 1201.82,1254.17 1206.5,1241.47C1210.48,1230.65 1220.09,1209.69 1220.09,1209.69C1220.09,1209.69 1230.78,1202.88 1236.85,1201.63C1261.88,1196.46 1371.55,1188.35 1371.7,1189.57L1371.7,1230.45C1371.7,1230.45 1371.2,1253.09 1369.85,1259.45C1369.09,1263.06 1367.21,1267.75 1363.62,1268.59C1349.06,1271.97 1309.66,1277.04 1282.51,1279.78C1253.91,1282.68 1192.03,1285.95 1192.03,1285.95L1192.03,1285.95Z"
           style="fill:rgb(255,128,0);"
           id="path37" /><path
           d="M1178.11,1334.17C1171.76,1350.77 1166.35,1368.49 1161.15,1386.47C1160.82,1387.82 1160.74,1389.3 1161.15,1391.02C1161.15,1391.02 1166.75,1391.06 1167.89,1391.02C1206.29,1389.57 1356.86,1367.93 1345.29,1366.81C1345.29,1366.81 1352.2,1362.67 1354.23,1359.37C1356.56,1355.59 1359.23,1344.16 1359.23,1344.16L1361.96,1322.63C1299.3,1326.43 1238.68,1329.6 1178.11,1334.17Z"
           style="fill:rgb(255,128,0);"
           id="path39" /><path
           d="M622.775,1285.95C622.775,1285.95 612.981,1254.17 608.304,1241.47C604.326,1230.65 594.712,1209.69 594.712,1209.69C594.712,1209.69 584.024,1202.88 577.952,1201.63C552.92,1196.46 443.26,1188.35 443.1,1189.57L443.1,1230.45C443.1,1230.45 443.604,1253.09 444.952,1259.45C445.717,1263.06 447.596,1267.75 451.188,1268.59C465.744,1271.97 505.14,1277.04 532.293,1279.78C560.891,1282.68 622.775,1285.95 622.775,1285.95Z"
           style="fill:rgb(255,128,0);"
           id="path41" /><path
           d="M639.518,1334.17C645.866,1350.77 651.28,1368.49 656.483,1386.47C656.805,1387.82 656.892,1389.3 656.483,1391.02C656.483,1391.02 650.88,1391.06 649.738,1391.02C611.335,1389.57 460.772,1367.93 472.343,1366.81C472.343,1366.81 465.429,1362.67 463.395,1359.37C461.072,1355.59 458.402,1344.16 458.402,1344.16L455.671,1322.63C518.331,1326.43 578.945,1329.6 639.518,1334.17L639.518,1334.17Z"
           style="fill:rgb(255,128,0);"
           id="path43" /></g></g></g><g
     transform="translate(-26.303,-110.293)"
     id="g45"><g
       style="font-size:110px;font-family:Roboto-Regular, Roboto"
       id="text47"><path
         d="m 350.17996,181.10107 -25.13672,0 0,69.87793 -10.58105,0 0,-69.87793 -25.08301,0 0,-8.32519 60.80078,0 0,8.32519 z"
         style="font-size:110px;font-family:Roboto-Regular, Roboto"
         id="path4169" /><path
         d="m 384.34067,202.20947 -5.42481,-0.32226 q -4.18945,0 -7.08984,1.9873 -2.84668,1.98731 -4.4043,5.58594 l 0,41.51855 -10.58105,0 0,-58.11523 9.45312,0 1.02051,8.48633 q 2.4707,-4.51172 6.06934,-7.03614 3.65234,-2.52441 8.3789,-2.52441 1.18164,0 2.25586,0.21484 1.07422,0.16114 1.77246,0.37598 l -1.45019,9.8291 z"
         style=""
         id="path4171" /><path
         d="m 431.55258,242.38525 q -2.73926,4.67286 -7.03613,7.19727 -4.29688,2.52441 -9.93652,2.52441 -9.50684,0 -14.82422,-6.06933 -5.31739,-6.06934 -5.31739,-18.90625 l 0,-34.26758 10.58106,0 0,34.375 q 0,9.29199 2.73926,12.7832 2.73925,3.49121 8.54004,3.49121 5.63964,0 9.29199,-2.25586 3.70605,-2.30957 5.58594,-6.49902 l 0,-41.89453 10.58105,0 0,58.11523 -9.50684,0 -0.69824,-8.59375 z"
         style="font-size:110px;font-family:Roboto-Regular, Roboto"
         id="path4173" /><path
         d="m 480.80551,243.83545 q 5.26367,0 9.23828,-3.22266 4.02832,-3.27636 4.02832,-8.00293 l 9.50684,0 0.10742,0.32227 q 0.26856,7.51953 -6.71387,13.37402 -6.92871,5.80078 -16.16699,5.80078 -12.67578,0 -19.38965,-8.27148 -6.71386,-8.27149 -6.71386,-20.78613 l 0,-2.25586 q 0,-12.40723 6.71386,-20.67871 6.76758,-8.3252 19.38965,-8.3252 10.20508,0 16.65039,6.01563 6.49903,6.01562 6.28418,14.7705 l -0.10742,0.32227 -9.56055,0 q 0,-5.31738 -3.75976,-9.02344 -3.75977,-3.75976 -9.50684,-3.75976 -8.32519,0 -11.92383,6.01562 -3.54492,5.96192 -3.54492,14.66309 l 0,2.25586 q 0,8.91601 3.54492,14.87793 3.54493,5.9082 11.92383,5.9082 z"
         style="font-size:110px;font-family:Roboto-Regular, Roboto"
         id="path4175" /><path
         d="m 533.11996,224.17725 -6.875,0 0,26.80175 -10.58105,0 0,-83.78906 10.58105,0 0,48.55469 6.76758,0 15.89844,-22.88086 12.67578,0 -19.87305,26.42578 22.71973,31.68945 -12.46094,0 -18.85254,-26.80175 z"
         style="font-size:110px;font-family:Roboto-Regular, Roboto"
         id="path4177" /><path
         d="m 583.55453,250.979 -10.58105,0 0,-58.11523 10.58105,0 0,58.11523 z m 0,-72.99316 -10.58105,0 0,-10.7959 10.58105,0 0,10.7959 z"
         style="font-size:110px;font-family:Roboto-Regular, Roboto"
         id="path4179" /><path
         d="m 609.28207,192.86377 0.75196,8.64746 q 2.90039,-4.61914 7.25097,-7.14355 4.4043,-2.57813 9.99024,-2.57813 9.39941,0 14.55566,5.53223 5.15625,5.47851 5.15625,16.97265 l 0,36.68457 -10.58105,0 0,-36.46972 q 0,-7.68067 -3.06153,-10.90332 -3.00781,-3.22266 -9.23828,-3.22266 -4.56543,0 -8.11035,2.20215 -3.49121,2.20215 -5.58594,6.01562 l 0,42.37793 -10.58105,0 0,-58.11523 9.45312,0 z"
         style="font-size:110px;font-family:Roboto-Regular, Roboto"
         id="path4181" /><path
         d="m 660.03891,222.99561 q 0,-14.01856 6.12305,-22.61231 6.12304,-8.59375 16.91894,-8.59375 5.53223,0 9.72168,2.25586 4.18945,2.20215 6.98242,6.3916 l 1.28907,-7.57324 8.43261,0 0,58.4375 q 0,11.17187 -6.49902,17.13379 -6.49902,6.01562 -18.74512,6.01562 -4.18945,0 -9.07715,-1.18164 -4.83398,-1.12793 -8.54003,-3.11523 l 2.68554,-8.21777 q 2.84668,1.61132 6.875,2.57812 4.02832,1.02051 7.94922,1.02051 7.73438,0 11.22559,-3.54492 3.54492,-3.49121 3.54492,-10.68848 l 0,-6.55273 q -2.84668,3.65234 -6.82129,5.53222 -3.97461,1.82617 -9.13086,1.82617 -10.68848,0 -16.81152,-7.73437 -6.12305,-7.73438 -6.12305,-20.24902 l 0,-1.12793 z m 10.58105,1.12793 q 0,8.75488 3.70606,14.07226 3.70605,5.31738 11.2793,5.31738 4.78027,0 8.00293,-2.14843 3.22265,-2.20215 5.31738,-6.17676 l 0,-26.74805 q -2.04102,-3.70605 -5.31738,-5.85449 -3.27637,-2.20215 -7.89551,-2.20215 -7.57324,0 -11.33301,6.33789 -3.75977,6.33789 -3.75977,16.27442 l 0,1.12793 z"
         style="font-size:110px;font-family:Roboto-Regular, Roboto"
         id="path4183" /><path
         d="m 777.3436,231.53564 1.77246,6.17676 0.32226,0 1.77246,-6.17676 20.19532,-58.75976 11.44043,0 -29.05762,78.20312 -9.07715,0 -29.05762,-78.20312 11.49414,0 20.19532,58.75976 z"
         style="font-size:110px;font-family:Roboto-Regular, Roboto"
         id="path4185" /><path
         d="m 866.34262,231.26709 q 0,-5.37109 -4.02832,-8.96973 -4.02832,-3.65234 -14.28711,-6.12304 -12.40723,-2.95411 -19.38965,-8.70118 -6.92871,-5.74707 -6.92871,-14.44824 0,-9.13086 7.46582,-15.2539 7.51953,-6.12305 19.44336,-6.12305 12.83692,0 20.41016,7.03613 7.62695,7.03613 7.3584,16.32813 l -0.10743,0.32226 -10.09765,0 q 0,-6.875 -4.56543,-11.11816 -4.51172,-4.24317 -12.99805,-4.24317 -7.89551,0 -12.13867,3.59864 -4.18945,3.54492 -4.18945,9.29199 0,5.10254 4.56543,8.54004 4.56543,3.38379 14.82421,5.96191 12.35352,3.06153 18.79883,9.02344 6.44532,5.96191 6.44532,14.77051 0,9.45312 -7.73438,15.20019 -7.73437,5.74707 -20.19531,5.74707 -11.70899,0 -20.73242,-6.33789 -8.96973,-6.33789 -8.70118,-16.97265 l 0.10743,-0.32227 10.09765,0 q 0,7.51953 5.53223,11.44043 5.53223,3.9209 13.69629,3.9209 8.00293,0 12.67578,-3.38379 4.67285,-3.38379 4.67285,-9.18457 z"
         style="font-size:110px;font-family:Roboto-Regular, Roboto"
         id="path4187" /></g></g></svg>